<mxfile host="app.diagrams.net" agent="Mozilla/5.0 (Windows NT 10.0; Win64; x64; rv:137.0) Gecko/20100101 Firefox/137.0" version="27.0.6">
  <diagram name="Page-1" id="Vm3XZrUUVeAio6ioSqxI">
    <mxGraphModel dx="1123" dy="713" grid="1" gridSize="10" guides="1" tooltips="1" connect="1" arrows="1" fold="1" page="1" pageScale="1" pageWidth="850" pageHeight="1100" math="0" shadow="0">
      <root>
        <mxCell id="0" />
        <mxCell id="1" parent="0" />
        <mxCell id="xaOKeGsu1ytV6SnM-ZDY-1" value="" style="endArrow=classic;html=1;rounded=0;" edge="1" parent="1">
          <mxGeometry width="50" height="50" relative="1" as="geometry">
            <mxPoint x="320" y="240" as="sourcePoint" />
            <mxPoint x="380" y="240" as="targetPoint" />
          </mxGeometry>
        </mxCell>
        <mxCell id="xaOKeGsu1ytV6SnM-ZDY-2" value="IoT" style="text;html=1;align=center;verticalAlign=middle;resizable=0;points=[];autosize=1;strokeColor=none;fillColor=none;" vertex="1" parent="1">
          <mxGeometry x="280" y="220" width="40" height="30" as="geometry" />
        </mxCell>
        <mxCell id="xaOKeGsu1ytV6SnM-ZDY-5" value="" style="shape=image;imageAspect=0;aspect=fixed;verticalLabelPosition=bottom;verticalAlign=top;image=https://encrypted-tbn0.gstatic.com/images?q=tbn:ANd9GcRhfn0bqwn87y4iqFbnur8PcdQVh36ESA8qNg&amp;s;" vertex="1" parent="1">
          <mxGeometry x="390" y="210" width="93.33" height="60" as="geometry" />
        </mxCell>
        <mxCell id="xaOKeGsu1ytV6SnM-ZDY-6" value="" style="endArrow=classic;html=1;rounded=0;" edge="1" parent="1">
          <mxGeometry width="50" height="50" relative="1" as="geometry">
            <mxPoint x="483.33" y="239.63" as="sourcePoint" />
            <mxPoint x="553.33" y="239.63" as="targetPoint" />
          </mxGeometry>
        </mxCell>
        <mxCell id="xaOKeGsu1ytV6SnM-ZDY-7" value="" style="shape=image;imageAspect=0;aspect=fixed;verticalLabelPosition=bottom;verticalAlign=top;image=https://encrypted-tbn0.gstatic.com/images?q=tbn:ANd9GcTA20lZe7z-jt48v6xV-qqlGmJMOFN-6eJQ_Q&amp;s;" vertex="1" parent="1">
          <mxGeometry x="560" y="207.5" width="47.03" height="65" as="geometry" />
        </mxCell>
        <mxCell id="xaOKeGsu1ytV6SnM-ZDY-8" value="" style="endArrow=classic;html=1;rounded=0;" edge="1" parent="1">
          <mxGeometry width="50" height="50" relative="1" as="geometry">
            <mxPoint x="560" y="280" as="sourcePoint" />
            <mxPoint x="500" y="350" as="targetPoint" />
          </mxGeometry>
        </mxCell>
        <mxCell id="xaOKeGsu1ytV6SnM-ZDY-9" value="" style="endArrow=classic;html=1;rounded=0;" edge="1" parent="1">
          <mxGeometry width="50" height="50" relative="1" as="geometry">
            <mxPoint x="600" y="280" as="sourcePoint" />
            <mxPoint x="650" y="350" as="targetPoint" />
          </mxGeometry>
        </mxCell>
        <mxCell id="xaOKeGsu1ytV6SnM-ZDY-10" value="" style="shape=image;imageAspect=0;aspect=fixed;verticalLabelPosition=bottom;verticalAlign=top;image=https://miro.medium.com/v2/resize:fit:1000/0*jp2Q4PTmFPCek02g;" vertex="1" parent="1">
          <mxGeometry x="470" y="350" width="46.44" height="50" as="geometry" />
        </mxCell>
        <mxCell id="xaOKeGsu1ytV6SnM-ZDY-11" value="" style="endArrow=none;html=1;rounded=0;" edge="1" parent="1">
          <mxGeometry width="50" height="50" relative="1" as="geometry">
            <mxPoint x="490" y="440" as="sourcePoint" />
            <mxPoint x="580" y="440" as="targetPoint" />
          </mxGeometry>
        </mxCell>
        <mxCell id="xaOKeGsu1ytV6SnM-ZDY-12" value="" style="endArrow=none;html=1;rounded=0;" edge="1" parent="1">
          <mxGeometry width="50" height="50" relative="1" as="geometry">
            <mxPoint x="493.03999999999996" y="440" as="sourcePoint" />
            <mxPoint x="493.02" y="420" as="targetPoint" />
          </mxGeometry>
        </mxCell>
        <mxCell id="xaOKeGsu1ytV6SnM-ZDY-14" value="" style="endArrow=classic;html=1;rounded=0;" edge="1" parent="1">
          <mxGeometry width="50" height="50" relative="1" as="geometry">
            <mxPoint x="583.32" y="440" as="sourcePoint" />
            <mxPoint x="583.32" y="480" as="targetPoint" />
          </mxGeometry>
        </mxCell>
        <mxCell id="xaOKeGsu1ytV6SnM-ZDY-15" value="" style="shape=image;imageAspect=0;aspect=fixed;verticalLabelPosition=bottom;verticalAlign=top;image=https://miro.medium.com/v2/resize:fit:396/1*yK4mSowUMgkoTWNxnm24tQ.png;" vertex="1" parent="1">
          <mxGeometry x="620" y="360" width="80.55" height="60" as="geometry" />
        </mxCell>
        <mxCell id="xaOKeGsu1ytV6SnM-ZDY-16" value="" style="endArrow=none;dashed=1;html=1;rounded=0;" edge="1" parent="1">
          <mxGeometry width="50" height="50" relative="1" as="geometry">
            <mxPoint x="580" y="440" as="sourcePoint" />
            <mxPoint x="660" y="440" as="targetPoint" />
          </mxGeometry>
        </mxCell>
        <mxCell id="xaOKeGsu1ytV6SnM-ZDY-17" value="" style="endArrow=none;dashed=1;html=1;rounded=0;exitX=0.5;exitY=1;exitDx=0;exitDy=0;" edge="1" parent="1" source="xaOKeGsu1ytV6SnM-ZDY-15">
          <mxGeometry width="50" height="50" relative="1" as="geometry">
            <mxPoint x="610" y="490" as="sourcePoint" />
            <mxPoint x="660" y="440" as="targetPoint" />
          </mxGeometry>
        </mxCell>
        <mxCell id="xaOKeGsu1ytV6SnM-ZDY-18" value="" style="shape=image;imageAspect=0;aspect=fixed;verticalLabelPosition=bottom;verticalAlign=top;image=https://www.korcomptenz.com/wp-content/uploads/2021/12/AzureSynapseAnalytics-Logo.png;" vertex="1" parent="1">
          <mxGeometry x="527.27" y="480" width="112.5" height="40" as="geometry" />
        </mxCell>
        <mxCell id="xaOKeGsu1ytV6SnM-ZDY-19" value="" style="endArrow=classic;html=1;rounded=0;" edge="1" parent="1">
          <mxGeometry width="50" height="50" relative="1" as="geometry">
            <mxPoint x="580" y="530" as="sourcePoint" />
            <mxPoint x="580" y="580" as="targetPoint" />
          </mxGeometry>
        </mxCell>
        <mxCell id="xaOKeGsu1ytV6SnM-ZDY-20" value="" style="shape=image;imageAspect=0;aspect=fixed;verticalLabelPosition=bottom;verticalAlign=top;image=https://media.datacamp.com/legacy/v1724169856/image_ff55d03003.png;" vertex="1" parent="1">
          <mxGeometry x="535.94" y="580" width="71.09" height="70" as="geometry" />
        </mxCell>
        <mxCell id="xaOKeGsu1ytV6SnM-ZDY-21" value="Modularno" style="text;strokeColor=none;align=center;fillColor=none;html=1;verticalAlign=middle;whiteSpace=wrap;rounded=0;" vertex="1" parent="1">
          <mxGeometry x="300" y="520" width="60" height="30" as="geometry" />
        </mxCell>
      </root>
    </mxGraphModel>
  </diagram>
</mxfile>
